<svg xmlns="http://www.w3.org/2000/svg" width="349" height="142" viewBox="0 0 349 142">
  <metadata><?xpacket begin="﻿" id="W5M0MpCehiHzreSzNTczkc9d"?>
<x:xmpmeta xmlns:x="adobe:ns:meta/" x:xmptk="Adobe XMP Core 5.6-c142 79.160924, 2017/07/13-01:06:39        ">
   <rdf:RDF xmlns:rdf="http://www.w3.org/1999/02/22-rdf-syntax-ns#">
      <rdf:Description rdf:about=""/>
   </rdf:RDF>
</x:xmpmeta>
                                                                                                    
                                                                                                    
                                                                                                    
                                                                                                    
                                                                                                    
                                                                                                    
                                                                                                    
                                                                                                    
                                                                                                    
                                                                                                    
                                                                                                    
                                                                                                    
                                                                                                    
                                                                                                    
                                                                                                    
                                                                                                    
                                                                                                    
                                                                                                    
                                                                                                    
                                                                                                    
                           
<?xpacket end="w"?></metadata>
<defs>
    <style>
      .cls-1 {
        fill: #fff;
        fill-rule: evenodd;
      }
    </style>
  </defs>
  <path class="cls-1" d="M331.756,112.531V2.983h14.226V112.531H331.756Zm-14.9-5.9q-4.892,5.9-16.6,5.9-9.633,0-12.745-2.464-4.076,2.465-13.04,2.464-8.892,0-13.93-4.331a17.134,17.134,0,0,1-11.633,4.331h-7.705a17.807,17.807,0,0,1-12-4.331q-4.222,4.332-11.262,4.331H206.457q-4.222,0-4.519-.971v2.987A37.454,37.454,0,0,1,189.786,143l-10.743-9.409q8.519-8.14,8.52-22.03V28.223h14.375v65.49q0,4.78,4.519,4.779h11.485q4.446,0,4.446-4.63V28.223h14.3V93.862q0,4.631,4.52,4.63h7.705q4.519,0,4.52-4.779V28.223h14.374v62.5q0,7.767,6.595,7.766,6.074,0,6.075-7.691V28.223h14.375V90.8q-0.594,6.8,5.779,7.691,6.891-.149,6.891-7.766v-62.5h14.3l-0.074,65.49A19.8,19.8,0,0,1,316.858,106.632ZM232.02,22.174a6.431,6.431,0,0,1-4.668-1.979,6.348,6.348,0,0,1-2-4.667,6.616,6.616,0,0,1,1.964-4.779,6.334,6.334,0,0,1,4.705-2.016,6.457,6.457,0,0,1,4.742,2.016,6.556,6.556,0,0,1,2,4.779,6.31,6.31,0,0,1-2,4.7A6.577,6.577,0,0,1,232.02,22.174Zm-16.3,0a6.431,6.431,0,0,1-4.668-1.979,6.351,6.351,0,0,1-2-4.667,6.62,6.62,0,0,1,1.963-4.779,6.334,6.334,0,0,1,4.7-2.016,6.457,6.457,0,0,1,4.742,2.016,6.557,6.557,0,0,1,2,4.779,6.311,6.311,0,0,1-2,4.7A6.577,6.577,0,0,1,215.719,22.174ZM159.1,2.983h14.227V112.531H159.1V2.983ZM36.97,52.431L57.564,73.018,36.97,93.605V52.431Zm93.6,60.1H87.9v-0.005q-18.741-.088-18.746-21.8V70.937q0-10.753-8.076-19.341T42.4,43.009A25.942,25.942,0,0,0,22.952,51.3a27.655,27.655,0,0,0-7.965,19.864,26.306,26.306,0,0,0,7.928,19.49A26.64,26.64,0,0,0,42.4,98.492H55.961v14.039H42.624a39.965,39.965,0,0,1-29.452-12.284A40.6,40.6,0,0,1,.983,70.564,41.193,41.193,0,0,1,13.1,40.694,39.723,39.723,0,0,1,42.624,28.3a40.637,40.637,0,0,1,26.526,9.857V28.223H83.375V92.07q0,6.423,4.668,6.422h41.863q4.594,0,4.594-4.63V48.908q0-5.377-11.188-5.377-11.113,0-11.114,5.377V87.142H97.824V47.415a18.153,18.153,0,0,1,5.483-13.329Q108.79,28.6,123.238,28.6q14.151,0,19.894,5.377a17.076,17.076,0,0,1,5.743,12.919V93.862q0,9.857-6.076,14.263A20.71,20.71,0,0,1,130.573,112.531ZM49.737,22.174A6.347,6.347,0,0,1,45.143,20.2a6.349,6.349,0,0,1-2-4.667,6.683,6.683,0,0,1,1.926-4.779,6.217,6.217,0,0,1,4.668-2.016,6.421,6.421,0,0,1,4.779,2.016,6.623,6.623,0,0,1,1.964,4.779,6.373,6.373,0,0,1-1.964,4.7A6.54,6.54,0,0,1,49.737,22.174Zm-16.3,0A6.307,6.307,0,0,1,28.805,20.2a6.406,6.406,0,0,1-1.963-4.667,6.682,6.682,0,0,1,1.927-4.779,6.216,6.216,0,0,1,4.668-2.016,6.457,6.457,0,0,1,4.742,2.016,6.558,6.558,0,0,1,2,4.779,6.312,6.312,0,0,1-2,4.7A6.577,6.577,0,0,1,33.436,22.174Z"/>
</svg>
